<?xml version="1.0" standalone="no"?>
<!DOCTYPE svg PUBLIC "-//W3C//DTD SVG 20010904//EN"
 "http://www.w3.org/TR/2001/REC-SVG-20010904/DTD/svg10.dtd">
<svg version="1.0" xmlns="http://www.w3.org/2000/svg"
 width="256.000000pt" height="256.000000pt" viewBox="0 0 256.000000 256.000000"
 preserveAspectRatio="xMidYMid meet">
<metadata>
Created by potrace 1.11, written by Peter Selinger 2001-2013
</metadata>
<g transform="translate(0.000000,256.000000) scale(0.100000,-0.100000)"
fill="#000000" stroke="none">
<path d="M2 2364 l3 -198 56 -2 c77 -2 193 -13 259 -24 30 -5 71 -11 90 -14
135 -20 359 -96 535 -181 346 -168 635 -420 853 -743 88 -132 193 -339 242
-477 38 -108 86 -299 95 -375 4 -30 8 -57 10 -61 4 -6 17 -164 19 -234 l2 -50
198 -3 198 -2 -6 135 c-6 143 -25 287 -52 401 -9 38 -18 78 -20 89 -7 41 -55
192 -90 284 -137 372 -423 779 -719 1026 -33 28 -62 52 -65 55 -16 18 -142
109 -236 170 -213 138 -542 281 -752 325 -9 2 -46 10 -82 19 -107 25 -272 46
-410 53 l-130 6 2 -199z"/>
<path d="M6 1772 c-3 -3 -6 -92 -6 -199 0 -147 3 -193 13 -194 331 -14 588
-105 832 -295 136 -105 259 -245 343 -390 61 -106 129 -268 148 -355 21 -96
34 -184 38 -244 2 -38 5 -76 5 -82 1 -10 47 -13 196 -13 218 0 199 -8 195 78
-18 449 -214 884 -541 1199 -246 236 -557 400 -879 462 -103 20 -115 21 -210
27 -52 3 -103 7 -112 8 -9 2 -19 1 -22 -2z"/>
<path d="M277 770 c-107 -34 -188 -105 -240 -209 -30 -61 -32 -73 -32 -166 0
-92 3 -106 32 -167 39 -84 108 -152 193 -192 57 -27 75 -30 155 -30 107 0 129
4 194 40 71 38 134 105 172 182 30 60 33 76 34 157 0 125 -28 197 -110 280
-114 115 -253 152 -398 105z"/>
</g>
</svg>
